<?xml version="1.0" encoding="UTF-8"?>
<svg version="1.1" xmlns="http://www.w3.org/2000/svg" width="512" height="512">
<path d="M0 0 C1.58925224 -0.00374027 3.17850264 -0.0083433 4.76775014 -0.01373065 C9.11948553 -0.02592963 13.47114386 -0.02570384 17.82289243 -0.02334189 C22.52246353 -0.02293294 27.22201018 -0.03398046 31.92156982 -0.04345703 C41.12363436 -0.06005144 50.32567327 -0.06556589 59.52775152 -0.06668179 C67.01072655 -0.06763309 74.49369314 -0.07174748 81.9766655 -0.07808304 C103.20779746 -0.0956919 124.43890923 -0.10492257 145.67004855 -0.10342209 C147.38597477 -0.10330222 147.38597477 -0.10330222 149.13656616 -0.10317993 C150.85459586 -0.10305729 150.85459586 -0.10305729 152.60733323 -0.10293217 C171.16205994 -0.10211957 189.71670541 -0.12125155 208.27140863 -0.14945666 C227.33847101 -0.1782111 246.4054938 -0.19199552 265.47257841 -0.19026911 C276.17112177 -0.18960605 286.86958 -0.19506141 297.56810379 -0.21662521 C306.67851732 -0.23487078 315.78880711 -0.23915672 324.89923103 -0.22560637 C329.54314955 -0.2190935 334.18683092 -0.21889843 338.83072662 -0.23631287 C343.09097049 -0.25212357 347.35079075 -0.24909912 351.61102478 -0.2317446 C353.14331592 -0.22869218 354.67563931 -0.23223996 356.20789237 -0.24346475 C375.64402613 -0.37629407 393.66983665 5.07158741 408.36459351 18.26742554 C409.18572632 18.99574585 410.00685913 19.72406616 410.85287476 20.47445679 C423.41979273 32.27858763 432.57274895 49.15897956 433.55220103 66.61006474 C433.62831794 70.70888543 433.64118139 74.80351412 433.63201904 78.90283203 C433.63575932 80.49208427 433.64036234 82.08133467 433.64574969 83.67058218 C433.65794867 88.02231756 433.65772288 92.37397589 433.65536094 96.72572446 C433.65495198 101.42529556 433.66599951 106.12484221 433.67547607 110.82440186 C433.69207048 120.02646639 433.69758493 129.2285053 433.69870083 138.43058355 C433.69965213 145.91355858 433.70376652 153.39652517 433.71010208 160.87949753 C433.72771094 182.11062949 433.73694161 203.34174126 433.73544113 224.57288058 C433.73532126 226.2888068 433.73532126 226.2888068 433.73519897 228.03939819 C433.73511721 229.18475133 433.73503545 230.33010446 433.73495121 231.51016526 C433.73413862 250.06489197 433.75327059 268.61953744 433.78147571 287.17424066 C433.81023014 306.24130304 433.82401456 325.30832583 433.82228816 344.37541044 C433.8216251 355.0739538 433.82708045 365.77241203 433.84864426 376.47093582 C433.86688982 385.58134935 433.87117576 394.69163914 433.85762541 403.80206306 C433.85111254 408.44598158 433.85091747 413.08966295 433.86833191 417.73355865 C433.88414262 421.99380252 433.88111816 426.25362278 433.86376365 430.51385681 C433.86071122 432.04614795 433.864259 433.57847134 433.8754838 435.1107244 C434.00831311 454.54685816 428.56043163 472.57266868 415.36459351 487.26742554 C414.63627319 488.08855835 413.90795288 488.90969116 413.15756226 489.75570679 C401.35343141 502.32262476 384.47303948 511.47558098 367.0219543 512.45503306 C362.92313362 512.53114998 358.82850492 512.54401342 354.72918701 512.53485107 C353.13993477 512.53859135 351.55068437 512.54319437 349.96143687 512.54858172 C345.60970148 512.5607807 341.25804315 512.56055491 336.90629458 512.55819297 C332.20672348 512.55778401 327.50717683 512.56883154 322.80761719 512.57830811 C313.60555265 512.59490252 304.40351374 512.60041696 295.20143549 512.60153286 C287.71846047 512.60248416 280.23549387 512.60659855 272.75252151 512.61293411 C251.52138955 512.63054297 230.29027778 512.63977364 209.05913846 512.63827316 C207.34321224 512.6381533 207.34321224 512.6381533 205.59262085 512.63803101 C203.87459115 512.63790836 203.87459115 512.63790836 202.12185378 512.63778324 C183.56712707 512.63697065 165.0124816 512.65610263 146.45777838 512.68430774 C127.390716 512.71306217 108.32369321 512.7268466 89.25660861 512.72512019 C78.55806524 512.72445713 67.85960702 512.72991248 57.16108322 512.75147629 C48.05066969 512.76972185 38.9403799 512.77400779 29.82995598 512.76045744 C25.18603746 512.75394457 20.54235609 512.75374951 15.89846039 512.77116394 C11.63821652 512.78697465 7.37839626 512.78395019 3.11816223 512.76659568 C1.58587109 512.76354325 0.0535477 512.76709103 -1.47870536 512.77831583 C-20.91483912 512.91114514 -38.94064964 507.46326366 -53.63540649 494.26742554 C-54.45653931 493.53910522 -55.27767212 492.81078491 -56.12368774 492.06039429 C-68.69060572 480.25626344 -77.84356194 463.37587151 -78.82301402 445.92478633 C-78.89913093 441.82596565 -78.91199438 437.73133695 -78.90283203 433.63201904 C-78.90657231 432.04276681 -78.91117533 430.45351641 -78.91656268 428.8642689 C-78.92876166 424.51253351 -78.92853587 420.16087519 -78.92617393 415.80912662 C-78.92576497 411.10955552 -78.93681249 406.41000886 -78.94628906 401.71044922 C-78.96288347 392.50838468 -78.96839792 383.30634577 -78.96951382 374.10426752 C-78.97046512 366.6212925 -78.97457951 359.1383259 -78.98091507 351.65535355 C-78.99852393 330.42422158 -79.0077546 309.19310981 -79.00625412 287.96197049 C-79.00617421 286.81801968 -79.0060943 285.67406887 -79.00601196 284.49545288 C-79.0059302 283.35009975 -79.00584844 282.20474662 -79.0057642 281.02468581 C-79.0049516 262.4699591 -79.02408358 243.91531363 -79.0522887 225.36061041 C-79.08104313 206.29354803 -79.09482755 187.22652524 -79.09310114 168.15944064 C-79.09243808 157.46089727 -79.09789344 146.76243905 -79.11945724 136.06391525 C-79.13770281 126.95350173 -79.14198875 117.84321193 -79.1284384 108.73278801 C-79.12192553 104.08886949 -79.12173046 99.44518812 -79.1391449 94.80129242 C-79.15495561 90.54104856 -79.15193115 86.2812283 -79.13457663 82.02099426 C-79.13152421 80.48870312 -79.13507199 78.95637973 -79.14629678 77.42412667 C-79.2791261 57.98799291 -73.83124462 39.96218239 -60.63540649 25.26742554 C-59.90708618 24.44629272 -59.17876587 23.62515991 -58.42837524 22.77914429 C-42.51980493 5.8425565 -22.55010792 -0.05040155 0 0 Z " fill="#FF4141" transform="translate(78.63540649414063,-0.267425537109375)"/>
<path d="M0 0 C0.83144531 -0.02835937 1.66289062 -0.05671875 2.51953125 -0.0859375 C9.87210953 1.18434689 15.21996834 8.13704773 20.22216797 13.18261719 C21.11061905 14.07077621 21.99907013 14.95893524 22.91444397 15.87400818 C25.33708285 18.29779768 27.75521212 20.72592422 30.17141104 23.15612316 C32.70223777 25.69949327 35.2387688 28.23716163 37.77468872 30.77545166 C42.57029467 35.5772618 47.3607816 40.38414515 52.14943039 45.19289231 C57.60378119 50.66963519 63.06384482 56.14066748 68.52438521 61.611238 C79.75177228 72.85950303 90.97199785 84.11488388 102.1875 95.375 C105.4660291 93.93992474 107.6299428 92.17810809 110.1477356 89.64854431 C110.92444611 88.87313797 111.70115662 88.09773163 112.50140381 87.29882812 C113.34414856 86.44732178 114.18689331 85.59581543 115.05517578 84.71850586 C115.94987579 83.82249161 116.84457581 82.92647736 117.76638794 82.00331116 C119.70963407 80.05713509 121.64968534 78.10784845 123.58731461 76.15608025 C126.64957946 73.07153814 129.7189271 69.99411002 132.78927612 66.9176178 C137.64255528 62.05296361 142.49113663 57.18365801 147.33769119 52.31230503 C156.02330243 43.58233338 164.71453738 34.85796896 173.41097248 26.1387797 C176.46383079 23.07750133 179.51385773 20.01343716 182.56165719 16.94712245 C183.99954008 15.50117169 185.43853304 14.05633674 186.87802124 12.61198425 C188.63549742 10.84846069 190.39114044 9.08310772 192.14465332 7.31564331 C192.91572418 6.54305679 193.68679504 5.77047028 194.48123169 4.97447205 C195.15263247 4.29955184 195.82403324 3.62463163 196.5157795 2.9292593 C199.27232062 0.36640285 201.25929214 0.1683878 204.9375 0.0625 C206.19820313 0.00642578 206.19820313 0.00642578 207.484375 -0.05078125 C214.98110788 1.13006251 220.36023064 8.24859578 225.4375 13.375 C226.65953125 14.58542969 226.65953125 14.58542969 227.90625 15.8203125 C228.68484375 16.60148437 229.4634375 17.38265625 230.265625 18.1875 C231.32378418 19.24904297 231.32378418 19.24904297 232.40332031 20.33203125 C235.28850453 23.63570141 236.48573236 26.37424453 236.5625 30.75 C236.59085937 31.47960937 236.61921875 32.20921875 236.6484375 32.9609375 C235.27568093 40.15045917 228.32990264 45.50219666 223.37988281 50.40966797 C222.49172379 51.29811905 221.60356476 52.18657013 220.68849182 53.10194397 C218.26470232 55.52458285 215.83657578 57.94271212 213.40637684 60.35891104 C210.86300673 62.88973777 208.32533837 65.4262688 205.78704834 67.96218872 C200.9852382 72.75779467 196.17835485 77.5482816 191.36960769 82.33693039 C185.89286481 87.79128119 180.42183252 93.25134482 174.951262 98.71188521 C163.70299697 109.93927228 152.44761612 121.15949785 141.1875 132.375 C142.62257526 135.6535291 144.38439191 137.8174428 146.91395569 140.3352356 C147.68936203 141.11194611 148.46476837 141.88865662 149.26367188 142.68890381 C150.11517822 143.53164856 150.96668457 144.37439331 151.84399414 145.24267578 C152.74000839 146.13737579 153.63602264 147.03207581 154.55918884 147.95388794 C156.50536491 149.89713407 158.45465155 151.83718534 160.40641975 153.77481461 C163.49096186 156.83707946 166.56838998 159.9064271 169.6448822 162.97677612 C174.50953639 167.83005528 179.37884199 172.67863663 184.25019497 177.52519119 C192.98016662 186.21080243 201.70453104 194.90203738 210.4237203 203.59847248 C213.48499867 206.65133079 216.54906284 209.70135773 219.61537755 212.74915719 C221.06132831 214.18704008 222.50616326 215.62603304 223.95051575 217.06552124 C225.71403931 218.82299742 227.47939228 220.57864044 229.24685669 222.33215332 C230.01944321 223.10322418 230.79202972 223.87429504 231.58802795 224.66873169 C232.26294816 225.34013247 232.93786837 226.01153324 233.6332407 226.7032795 C236.07390856 229.32839778 236.3661329 231.12801218 236.4375 234.625 C236.46328125 235.37265625 236.4890625 236.1203125 236.515625 236.890625 C235.79398387 242.35447925 232.70217983 246.24163163 228.9140625 250.046875 C228.0890625 250.87574219 227.2640625 251.70460938 226.4140625 252.55859375 C225.55554688 253.40550781 224.69703125 254.25242187 223.8125 255.125 C222.96171875 255.98738281 222.1109375 256.84976562 221.234375 257.73828125 C220.40679687 258.56199219 219.57921875 259.38570313 218.7265625 260.234375 C217.97584473 260.98170898 217.22512695 261.72904297 216.45166016 262.49902344 C212.29520656 265.9428653 207.94920843 267.05722201 202.63091278 266.85010624 C199.72717467 266.28549264 198.61030693 265.39262651 196.45617676 263.39439392 C195.76363297 262.75598509 195.07108917 262.11757626 194.3575592 261.4598217 C190.59720667 257.84717162 186.88012156 254.19780328 183.20117188 250.50219727 C182.34168945 249.64286087 181.48220703 248.78352448 180.59667969 247.89814758 C178.26483389 245.56572885 175.93520633 243.23112277 173.60658836 240.8954823 C171.1634057 238.44600328 168.71734743 235.9993991 166.27160645 233.55247498 C161.65161708 228.92939068 157.03418041 224.30376566 152.41767931 219.67719835 C147.1571939 214.4054944 141.89383265 209.13666569 136.63024044 203.86806405 C125.81281426 193.04021515 114.99896442 182.20880184 104.1875 171.375 C100.93079171 172.8030958 98.77805328 174.54063283 96.27868652 177.0567627 C95.51328049 177.82230972 94.74787445 178.58785675 93.95927429 179.37660217 C93.12902237 180.21718674 92.29877045 181.0577713 91.44335938 181.92382812 C90.56162552 182.80848251 89.67989166 183.6931369 88.7714386 184.604599 C86.85670457 186.52694682 84.94388177 188.45099716 83.03401184 190.37815857 C80.01363789 193.42559811 76.98563169 196.46537613 73.9564209 199.50402832 C67.52751522 205.955126 61.10708322 212.41462734 54.6875 218.875 C47.75694034 225.8495958 40.82495913 232.82274112 33.88317156 239.78616476 C30.87245999 242.80683945 27.86669246 245.83232379 24.86461639 248.8615799 C22.55757504 251.1870451 20.24407842 253.50607469 17.93164062 255.82617188 C16.68626274 257.08704872 16.68626274 257.08704872 15.41572571 258.37339783 C14.65031967 259.13894485 13.88491364 259.90449188 13.09631348 260.6932373 C12.43413063 261.35986137 11.77194778 262.02648544 11.08969879 262.71331024 C7.03002383 266.25969054 3.19523378 267.13168133 -2.11328125 266.9921875 C-7.6444463 265.7274638 -11.01430598 261.34707415 -14.8125 257.375 C-15.9585392 256.24233739 -17.10848191 255.11361464 -18.26171875 253.98828125 C-30.10442924 242.37571513 -30.10442924 242.37571513 -30.375 236.1875 C-30.43816406 235.28644531 -30.50132813 234.38539063 -30.56640625 233.45703125 C-28.63791294 225.57319071 -19.54378084 218.96749749 -13.93969727 213.38867188 C-13.08036087 212.52918945 -12.22102448 211.66970703 -11.33564758 210.78417969 C-9.00322885 208.45233389 -6.66862277 206.12270633 -4.3329823 203.79408836 C-1.88350328 201.3509057 0.5631009 198.90484743 3.01002502 196.45910645 C7.63310932 191.83911708 12.25873434 187.22168041 16.88530165 182.60517931 C22.1570056 177.3446939 27.42583431 172.08133265 32.69443595 166.81774044 C43.52228485 156.00031426 54.35369816 145.18646442 65.1875 134.375 C63.7594042 131.11829171 62.02186717 128.96555328 59.5057373 126.46618652 C58.74019028 125.70078049 57.97464325 124.93537445 57.18589783 124.14677429 C56.34531326 123.31652237 55.5047287 122.48627045 54.63867188 121.63085938 C53.75401749 120.74912552 52.8693631 119.86739166 51.957901 118.9589386 C50.03555318 117.04420457 48.11150284 115.13138177 46.18434143 113.22151184 C43.13690189 110.20113789 40.09712387 107.17313169 37.05847168 104.1439209 C30.607374 97.71501522 24.14787266 91.29458322 17.6875 84.875 C10.7129042 77.94444034 3.73975888 71.01245913 -3.22366476 64.07067156 C-6.24433945 61.05995999 -9.26982379 58.05419246 -12.2990799 55.05211639 C-14.6245451 52.74507504 -16.94357469 50.43157842 -19.26367188 48.11914062 C-20.10425644 47.2888887 -20.944841 46.45863678 -21.81089783 45.60322571 C-22.57644485 44.83781967 -23.34199188 44.07241364 -24.1307373 43.28381348 C-24.79736137 42.62163063 -25.46398544 41.95944778 -26.15081024 41.27719879 C-29.69719054 37.21752383 -30.56918133 33.38273378 -30.4296875 28.07421875 C-29.1649638 22.5430537 -24.78457415 19.17319402 -20.8125 15.375 C-19.67983739 14.2289608 -18.55111464 13.07901809 -17.42578125 11.92578125 C-5.81941344 0.08939191 -5.81941344 0.08939191 0 0 Z " fill="#FFFEFE" transform="translate(152.8125,122.625)"/>
</svg>
