<?xml version="1.0" standalone="no"?>
<!DOCTYPE svg PUBLIC "-//W3C//DTD SVG 20010904//EN"
 "http://www.w3.org/TR/2001/REC-SVG-20010904/DTD/svg10.dtd">
<svg version="1.0" xmlns="http://www.w3.org/2000/svg"
 width="512.000000pt" height="512.000000pt" viewBox="0 0 512.000000 512.000000"
 preserveAspectRatio="xMidYMid meet">

<g transform="translate(0.000000,512.000000) scale(0.100000,-0.100000)"
fill="#000000" stroke="none">
<path d="M4452 4770 c-110 -23 -245 -138 -346 -293 -55 -83 -159 -289 -187
-369 -11 -31 -19 -39 -47 -44 -52 -10 -188 3 -269 26 -93 26 -118 25 -137 -2
-22 -32 -20 -52 10 -88 46 -54 120 -83 284 -110 133 -22 260 -76 460 -194 166
-98 263 -121 296 -70 16 23 16 28 1 59 -17 37 -60 68 -187 140 -94 53 -156 98
-170 124 -18 34 130 339 222 456 64 82 102 105 170 105 52 0 62 4 94 33 31 28
37 41 41 83 5 58 -19 104 -65 128 -38 20 -116 27 -170 16z"/>
<path d="M3300 3713 c-187 -189 -303 -407 -355 -667 -76 -383 -218 -700 -451
-1011 -357 -477 -869 -844 -1689 -1210 -208 -93 -323 -152 -351 -180 -75 -75
31 -170 257 -229 513 -135 1191 -74 1697 153 186 84 473 234 577 302 498 327
1007 903 1278 1449 92 183 121 265 142 390 7 47 21 125 29 174 20 112 20 305
1 415 -20 116 -21 118 -58 124 -62 10 -144 48 -277 127 -175 104 -251 135
-396 161 -135 24 -191 41 -251 75 -23 13 -45 24 -49 24 -4 0 -51 -44 -104 -97z
m14 -704 c39 -37 38 -85 -8 -252 -160 -577 -500 -1138 -884 -1455 -55 -46 -68
-52 -108 -52 -61 0 -104 40 -104 97 1 51 13 70 95 140 314 269 583 694 750
1186 25 73 54 172 64 220 23 104 40 133 84 146 44 12 77 4 111 -30z"/>
</g>
</svg>
