<?xml version="1.0" encoding="UTF-8"?>
<svg version="1.1" xmlns="http://www.w3.org/2000/svg" width="512" height="512">
<path d="M0 0 C0.79899216 -0.00570007 1.59798431 -0.01140015 2.42118835 -0.01727295 C4.10979903 -0.02670371 5.79842795 -0.03324928 7.48706055 -0.03710938 C10.05485589 -0.04680191 12.62184588 -0.07783736 15.18945312 -0.109375 C16.83463069 -0.11590718 18.47981395 -0.12115681 20.125 -0.125 C21.26597893 -0.1435202 21.26597893 -0.1435202 22.43000793 -0.16241455 C28.59765404 -0.13696564 33.45104643 1.01735389 38.07421875 5.390625 C42.60982493 12.94996864 42.70862391 22.59911609 43.76171875 31.203125 C44.29539063 31.39422852 44.8290625 31.58533203 45.37890625 31.78222656 C47.84170925 32.66742954 50.30169544 33.56022765 52.76171875 34.453125 C53.60089844 34.75347656 54.44007813 35.05382813 55.3046875 35.36328125 C59.39448933 36.85336409 63.25078276 38.41220271 67.07421875 40.5 C69.53142629 41.75433773 70.61416502 42.20182877 73.4296875 42.2265625 C76.4870474 40.88480656 78.58753839 39.05210252 81.07421875 36.828125 C90.50978784 28.90830998 90.50978784 28.90830998 96.86512756 29.34896851 C103.01071443 30.5358638 106.38263186 32.79616258 110.6953125 37.2421875 C111.29932388 37.84187347 111.90333527 38.44155945 112.52565002 39.05941772 C113.79021287 40.32360133 115.04615747 41.59645972 116.29370117 42.87744141 C118.19622564 44.82506095 120.13108648 46.73552092 122.07226562 48.64453125 C123.30286489 49.88335033 124.53145207 51.12417207 125.7578125 52.3671875 C126.33172226 52.93208893 126.90563202 53.49699036 127.49693298 54.07901001 C131.4865917 58.23490293 132.81145506 61.51201823 133.76171875 67.203125 C133.52322431 74.45837695 127.97650257 80.05752232 123.34692383 85.15478516 C121.63998699 87.04933969 121.63998699 87.04933969 119.76171875 90.203125 C120.13891631 93.36633785 120.13891631 93.36633785 121.76171875 96.203125 C122.15230469 97.08613281 122.54289062 97.96914062 122.9453125 98.87890625 C123.35910156 99.74902344 123.77289063 100.61914062 124.19921875 101.515625 C129.76171875 113.57867973 129.76171875 113.57867973 129.76171875 119.203125 C131.33759766 119.27660156 131.33759766 119.27660156 132.9453125 119.3515625 C152.6107048 120.3495917 152.6107048 120.3495917 156.59765625 123.78515625 C161.44905856 129.19458371 161.92777528 133.67488536 161.96484375 140.81640625 C161.97054382 141.66357712 161.9762439 142.51074799 161.9821167 143.3835907 C161.99156077 145.17653151 161.99809833 146.96948963 162.00195312 148.76245117 C162.01164538 151.49494008 162.04266837 154.22667238 162.07421875 156.95898438 C162.08075053 158.70312055 162.08600032 160.44726208 162.08984375 162.19140625 C162.10219055 163.00410477 162.11453735 163.81680328 162.1272583 164.65412903 C162.10389812 170.65295201 160.71835241 174.60621992 157.0546875 179.46875 C153.95310132 181.81475385 150.82701759 182.36151858 147.07421875 182.953125 C146.00880859 183.13742065 146.00880859 183.13742065 144.921875 183.32543945 C139.81668813 184.16097129 134.93801942 184.48042682 129.76171875 184.203125 C129.51550781 185.49347656 129.26929688 186.78382813 129.015625 188.11328125 C127.86720655 193.27863471 125.92512858 197.85830353 123.69921875 202.640625 C123.33505859 203.44177734 122.97089844 204.24292969 122.59570312 205.06835938 C121.35160306 207.79802071 120.10332317 210.51991616 118.76171875 213.203125 C119.52097656 214.15574219 120.28023438 215.10835937 121.0625 216.08984375 C122.06656027 217.35664877 123.07045795 218.62358268 124.07421875 219.890625 C124.57373047 220.51646484 125.07324219 221.14230469 125.58789062 221.78710938 C134.34572931 232.86490533 134.34572931 232.86490533 133.76171875 240.203125 C131.83199804 245.61152236 129.32887161 249.22232409 125.2109375 253.25 C124.40629814 254.0568222 124.40629814 254.0568222 123.58540344 254.87994385 C122.45636789 256.0073295 121.32242193 257.12981709 120.18383789 258.24755859 C118.45217197 259.95022125 116.73999142 261.67082668 115.02929688 263.39453125 C113.92428647 264.49330431 112.8182017 265.59099818 111.7109375 266.6875 C111.20447189 267.19690125 110.69800629 267.70630249 110.17619324 268.23114014 C106.1337401 272.16903169 101.53506104 275.51511347 95.76171875 276.015625 C87.62008646 275.8079303 79.88011448 268.06009833 74.15234375 262.8125 C71.90684693 260.9636761 71.90684693 260.9636761 69.33984375 261.2734375 C66.29462469 262.37156195 63.42445209 263.66397186 60.51171875 265.078125 C47.52554087 271.203125 47.52554087 271.203125 41.76171875 271.203125 C41.68824219 272.52763672 41.68824219 272.52763672 41.61328125 273.87890625 C40.24180981 295.89338745 40.24180981 295.89338745 35.76171875 301.203125 C31.11514123 304.92620522 26.58709725 304.68625409 20.89453125 304.70703125 C19.94158173 304.71701645 18.9886322 304.72700165 18.00680542 304.73728943 C15.99465261 304.75244865 13.9824247 304.7595159 11.97021484 304.7590332 C8.90334884 304.76558945 5.83973031 304.82007874 2.7734375 304.87695312 C0.8138131 304.88575716 -1.1458266 304.89171006 -3.10546875 304.89453125 C-4.01610077 304.9160878 -4.92673279 304.93764435 -5.86495972 304.95985413 C-11.65052791 304.89806598 -14.72171987 303.7852862 -18.92974854 299.77207947 C-22.56575877 295.41243722 -22.7393011 289.64505023 -23.36328125 284.203125 C-23.44964844 283.51734375 -23.53601563 282.8315625 -23.625 282.125 C-24.10545038 278.12887303 -24.32628901 274.22633675 -24.23828125 270.203125 C-24.78572998 270.10805664 -25.33317871 270.01298828 -25.8972168 269.91503906 C-32.67808603 268.59370563 -38.21213081 265.9815982 -44.28320312 262.7734375 C-44.99669922 262.41507812 -45.71019531 262.05671875 -46.4453125 261.6875 C-47.39627808 261.18814941 -47.39627808 261.18814941 -48.36645508 260.67871094 C-50.28582726 260.002895 -50.28582726 260.002895 -52.26831055 260.95214844 C-54.1256151 262.13157941 -55.84194403 263.34976823 -57.55078125 264.734375 C-58.45183594 265.45560547 -58.45183594 265.45560547 -59.37109375 266.19140625 C-59.98726563 266.69027344 -60.6034375 267.18914062 -61.23828125 267.703125 C-71.37519667 275.91020924 -71.37519667 275.91020924 -78.70629883 275.60961914 C-87.47633254 274.20164439 -94.63798634 265.25814299 -100.55078125 259.265625 C-101.43056641 258.39744141 -102.31035156 257.52925781 -103.21679688 256.63476562 C-114.78063621 245.01824365 -114.78063621 245.01824365 -114.86328125 237.828125 C-114.5046361 230.97915946 -110.13392819 226.35032699 -105.765625 221.40234375 C-104.93160156 220.44972656 -104.09757812 219.49710938 -103.23828125 218.515625 C-102.03171875 217.21044922 -102.03171875 217.21044922 -100.80078125 215.87890625 C-98.89194693 213.28568272 -98.89194693 213.28568272 -99.80078125 210.30859375 C-100.27515625 209.28378906 -100.74953125 208.25898438 -101.23828125 207.203125 C-101.71265625 206.06875 -102.18703125 204.934375 -102.67578125 203.765625 C-103.19140625 202.59 -103.70703125 201.414375 -104.23828125 200.203125 C-106.1188325 195.91546814 -107.82284863 191.66718171 -109.23828125 187.203125 C-109.96418457 187.10813721 -110.69008789 187.01314941 -111.43798828 186.9152832 C-114.74964732 186.46979817 -118.05608177 185.99304705 -121.36328125 185.515625 C-122.50539063 185.36673828 -123.6475 185.21785156 -124.82421875 185.06445312 C-131.46353382 184.08013606 -135.65292904 183.22848576 -140.23828125 178.203125 C-142.2878553 175.12876392 -142.49743232 174.41881032 -142.56054688 170.93457031 C-142.57976196 170.07647766 -142.59897705 169.21838501 -142.61877441 168.33428955 C-142.62727417 167.4092865 -142.63577393 166.48428345 -142.64453125 165.53125 C-142.6559314 164.57547058 -142.66733154 163.61969116 -142.67907715 162.63494873 C-142.69797358 160.61084416 -142.71104374 158.58667811 -142.71875 156.5625 C-142.73812462 153.47806121 -142.80014501 150.39631074 -142.86328125 147.3125 C-142.87634603 145.34376579 -142.88684513 143.37501255 -142.89453125 141.40625 C-142.91922485 140.48934387 -142.94391846 139.57243774 -142.96936035 138.62774658 C-142.92914773 132.79435313 -141.83609773 129.72862804 -137.75964355 125.50918579 C-133.5738668 121.91577554 -128.53632692 121.67439951 -123.23828125 121.078125 C-122.53960937 120.99175781 -121.8409375 120.90539062 -121.12109375 120.81640625 C-117.47546719 120.38305819 -113.90944136 120.10274172 -110.23828125 120.203125 C-110.03525391 119.29046875 -110.03525391 119.29046875 -109.828125 118.359375 C-108.11962093 111.40259196 -105.59239019 105.16443729 -102.40014648 98.77539062 C-101.0195737 95.85429403 -100.11119719 93.87006216 -100.7265625 90.640625 C-102.70120288 87.45670872 -104.90278383 84.5008332 -107.23828125 81.578125 C-114.53695054 72.31924167 -114.53695054 72.31924167 -114.61328125 67.953125 C-114.64164063 67.22609375 -114.67 66.4990625 -114.69921875 65.75 C-113.56936412 59.50707442 -109.23596543 54.73389042 -104.87890625 50.375 C-104.37083435 49.85931458 -103.86276245 49.34362915 -103.33929443 48.81231689 C-102.27073547 47.73303263 -101.19826793 46.65760512 -100.12207031 45.5859375 C-98.49206741 43.9569089 -96.88459964 42.30768825 -95.27734375 40.65625 C-84.01655095 29.26308196 -84.01655095 29.26308196 -76.09716797 29.1809082 C-68.92901654 29.71282985 -63.52740469 35.35948006 -58.27734375 39.76953125 C-55.44247689 42.32736335 -55.44247689 42.32736335 -52.23828125 43.203125 C-49.51526117 42.05643428 -46.9305343 40.84787242 -44.30078125 39.515625 C-37.39940875 36.12946168 -30.62891109 33.36762545 -23.23828125 31.203125 C-23.16311279 30.59315674 -23.08794434 29.98318848 -23.01049805 29.35473633 C-22.6608795 26.57337937 -22.29351173 23.79464288 -21.92578125 21.015625 C-21.80783203 20.05591797 -21.68988281 19.09621094 -21.56835938 18.10742188 C-20.7034399 11.6981468 -19.69091677 7.46709625 -14.80078125 2.953125 C-10.13041266 -0.23639501 -5.52020359 0.03059791 0 0 Z M-28.23828125 113.203125 C-39.61472693 125.52760782 -43.79894436 139.33176176 -43.515625 155.76953125 C-42.9223017 169.51633035 -35.89466545 181.71075581 -26.23828125 191.203125 C-15.3897087 200.78338845 -1.57465956 206.00697929 12.95703125 205.48046875 C27.81207881 204.01151558 41.178096 197.94939374 51.00390625 186.6171875 C61.40144676 173.62878444 64.64057769 160.52711611 63.76171875 144.203125 C61.59824988 128.89383255 53.10555624 117.16758923 41.44921875 107.390625 C19.61188103 91.31591807 -8.86938181 95.57314609 -28.23828125 113.203125 Z " fill="#000000" transform="translate(142.23828125,1.796875)"/>
<path d="M0 0 C0.69778564 -0.02610352 1.39557129 -0.05220703 2.11450195 -0.07910156 C7.16881807 -0.09622033 9.99755568 1.19781055 13.875 4.375 C17.75124644 10.32780704 19.03539615 17.35458391 18.875 24.375 C19.49503906 24.46136719 20.11507812 24.54773438 20.75390625 24.63671875 C29.14146218 25.96749545 36.89757352 28.55437147 44.875 31.375 C45.39449219 30.83230469 45.91398438 30.28960937 46.44921875 29.73046875 C52.1492027 23.8829806 56.32203016 19.66493118 64.875 19.375 C71.9588018 20.90982372 76.01677384 24.8715839 81.1875 29.8125 C83.51369361 32.03049856 85.89588199 34.0833734 88.375 36.125 C92.53036322 39.7694579 94.40811499 43.04057493 95.5 48.5 C94.67154701 53.63640855 92.33329891 57.22682129 89.6015625 61.60546875 C89.03179687 62.51941406 88.46203125 63.43335938 87.875 64.375 C87.39289063 65.014375 86.91078125 65.65375 86.4140625 66.3125 C85.57682561 68.62240678 85.57682561 68.62240678 87.359375 71.58203125 C88.09882564 72.79361315 88.85480406 73.99522648 89.625 75.1875 C92.58470648 79.866898 94.57346907 83.96810821 95.875 89.375 C97.174375 89.354375 98.47375 89.33375 99.8125 89.3125 C114.36897416 89.38116261 114.36897416 89.38116261 119.875 94.375 C124.42463686 100.42660031 124.65780113 107.04654909 124.875 114.375 C124.9167334 115.09671387 124.9584668 115.81842773 125.00146484 116.56201172 C125.91081764 132.29676961 125.91081764 132.29676961 122.5 136.8125 C118.59407877 140.22096899 113.83583028 141.29457377 108.875 142.375 C107.33262323 142.76805731 105.79088106 143.16361944 104.25 143.5625 C103.13625 143.830625 102.0225 144.09875 100.875 144.375 C100.62105469 145.26960937 100.36710938 146.16421875 100.10546875 147.0859375 C98.08085156 154.19863759 96.02692704 161.29972474 93.875 168.375 C94.90560547 169.31859375 94.90560547 169.31859375 95.95703125 170.28125 C105.99280366 179.81451593 105.99280366 179.81451593 106.875 186.375 C106.33979914 193.23161482 103.81251833 197.52804974 99.1875 202.4375 C98.37720337 203.3342041 98.37720337 203.3342041 97.55053711 204.24902344 C96.48298634 205.43003448 95.40967734 206.60587153 94.33007812 207.77587891 C92.45877851 209.83242463 90.70452663 211.97876633 88.9375 214.125 C85.86663413 217.5640752 83.71495336 219.12935003 79.0234375 219.53515625 C72.14637887 219.42262256 67.33505265 215.79276622 61.890625 211.9921875 C59.05886646 210.14345552 59.05886646 210.14345552 56.25 210.48828125 C53.86912575 211.37719318 51.80516862 212.38343618 49.625 213.6875 C45.17298951 216.26143548 40.60743477 218.37238576 35.875 220.375 C35.83761719 221.365 35.80023438 222.355 35.76171875 223.375 C34.98738361 240.17849791 34.98738361 240.17849791 29.5625 245.75 C23.00778346 249.71331698 16.37316654 250.01515495 8.875 250.375 C8.20984375 250.40899902 7.5446875 250.44299805 6.859375 250.47802734 C4.73956597 250.57469456 2.62135423 250.63607026 0.5 250.6875 C-0.80710937 250.72488281 -2.11421875 250.76226562 -3.4609375 250.80078125 C-7.79805952 250.29678733 -9.80897995 249.17976048 -13.125 246.375 C-15.86330083 242.7541563 -16.84799237 239.21657451 -17.8125 234.8125 C-18.06386719 233.69746094 -18.31523437 232.58242188 -18.57421875 231.43359375 C-19.125 228.375 -19.125 228.375 -19.125 224.375 C-19.98222656 224.19324219 -20.83945312 224.01148438 -21.72265625 223.82421875 C-32.20410249 221.51995492 -32.20410249 221.51995492 -36.125 219.625 C-39.59942237 218.17732401 -40.6056493 218.2314721 -44.125 219.375 C-46.76833909 221.35759111 -46.76833909 221.35759111 -49.25 223.8125 C-54.13747929 228.44000699 -57.19654037 231.03425608 -64.125 231.375 C-70.6642646 229.47847732 -74.82970533 226.55687092 -79.8125 222 C-80.44994141 221.43539062 -81.08738281 220.87078125 -81.74414062 220.2890625 C-94.29264308 209.10030489 -94.29264308 209.10030489 -94.6875 202.375 C-94.60380836 196.75836089 -91.81759258 192.78569956 -88.8515625 188.171875 C-88.28179687 187.24890625 -87.71203125 186.3259375 -87.125 185.375 C-86.63 184.61058594 -86.135 183.84617187 -85.625 183.05859375 C-84.79428851 178.6000094 -87.28229332 175.46593377 -89.5 171.6875 C-90.3651604 170.16456324 -91.22729612 168.63990296 -92.0859375 167.11328125 C-92.47571777 166.44337158 -92.86549805 165.77346191 -93.26708984 165.08325195 C-94.125 163.375 -94.125 163.375 -94.125 161.375 C-94.70765625 161.39820313 -95.2903125 161.42140625 -95.890625 161.4453125 C-112.82358039 161.81805051 -112.82358039 161.81805051 -119.25 157.0625 C-122.99942469 151.68832461 -123.64521811 146.56231222 -124.25 140.1875 C-124.3327417 139.33905518 -124.4154834 138.49061035 -124.50073242 137.61645508 C-126.10521043 120.41902325 -126.10521043 120.41902325 -122.125 114.375 C-119.86441334 111.69530881 -118.05971826 110.82858775 -114.67578125 109.98828125 C-113.82822266 109.77236328 -112.98066406 109.55644531 -112.10742188 109.33398438 C-111.22634766 109.12064453 -110.34527344 108.90730469 -109.4375 108.6875 C-108.09848633 108.35008789 -108.09848633 108.35008789 -106.73242188 108.00585938 C-104.53210866 107.45283947 -102.32984004 106.90963167 -100.125 106.375 C-99.85945313 105.35019531 -99.59390625 104.32539063 -99.3203125 103.26953125 C-98.96370972 101.90881011 -98.60692949 100.54813547 -98.25 99.1875 C-97.98896484 98.17719727 -97.98896484 98.17719727 -97.72265625 97.14648438 C-96.95342242 94.22624482 -96.1631333 91.46036376 -94.9296875 88.69921875 C-93.90151211 85.72948886 -94.05949814 84.32703978 -95.125 81.375 C-97.11195339 78.80134624 -97.11195339 78.80134624 -99.5625 76.375 C-103.72681545 72.09705154 -105.83533254 68.98200712 -106.5 63 C-105.75161268 55.76558925 -100.83478601 50.52968823 -96.1875 45.25 C-95.67509766 44.65574219 -95.16269531 44.06148437 -94.63476562 43.44921875 C-84.49047867 31.77104343 -84.49047867 31.77104343 -78.23046875 31.203125 C-70.54328399 31.3693344 -65.09314854 35.94180675 -59.125 40.375 C-58.48175781 40.01148438 -57.83851563 39.64796875 -57.17578125 39.2734375 C-49.9715706 35.26538878 -42.64603096 31.74690895 -35.125 28.375 C-35.08761719 27.37339844 -35.05023438 26.37179688 -35.01171875 25.33984375 C-34.37724328 11.4215844 -34.37724328 11.4215844 -31.125 6.375 C-22.59365398 -0.36225414 -10.50214766 0.22577832 0 0 Z M-32.859375 95.55859375 C-41.07727429 105.77429269 -44.38074259 117.44085128 -43.125 130.375 C-40.38364962 143.70793138 -33.63586599 154.53442267 -22.25 162.125 C-12.05222144 168.14465958 -0.8167374 169.76693808 10.6875 167.3125 C22.83733968 163.9848369 32.36471788 157.21124509 38.66015625 146.2734375 C44.27235711 135.36745852 45.62216644 124.20555807 43.2265625 112.09765625 C39.21435367 100.14676073 31.02256838 90.46538471 19.9375 84.5625 C1.4167445 75.96660737 -18.97348859 80.90854692 -32.859375 95.55859375 Z " fill="#000000" transform="translate(387.125,157.625)"/>
<path d="M0 0 C6.01611651 5.42917831 6.16665819 11.64135881 6.5625 19.3125 C7.83673828 19.45365234 7.83673828 19.45365234 9.13671875 19.59765625 C13.00566845 20.40497415 15.8782018 21.92507165 19.375 23.75 C24.11160281 26.05154307 24.11160281 26.05154307 29.19140625 25.40625 C31.45778552 23.77803371 31.45778552 23.77803371 33.546875 21.9375 C36.89288148 19.23994439 39.29927099 19.24373824 43.5625 19.3125 C49.01627641 21.19550132 52.23776931 23.48615338 56.3125 27.6875 C57.69695312 29.09128906 57.69695312 29.09128906 59.109375 30.5234375 C63.52889973 35.54818377 65.22158483 39.02404671 65.0625 45.67578125 C64.31741141 49.60495938 62.37831802 52.26872759 59.97265625 55.40234375 C58.37460816 57.36111048 58.37460816 57.36111048 57.5625 60.3125 C58.515287 63.11976476 58.515287 63.11976476 59.9375 66.125 C61.79851977 70.22652122 62.98713411 73.83668861 63.5625 78.3125 C65.295 78.2196875 65.295 78.2196875 67.0625 78.125 C71.66675629 78.14132715 75.53274147 79.05190375 79.5625 81.3125 C85.06820337 86.95937525 84.77206383 92.17968954 84.8125 99.625 C84.8434375 101.03168945 84.8434375 101.03168945 84.875 102.46679688 C84.91219005 109.06338266 84.08081752 113.47939279 79.5625 118.5625 C74.43210469 121.5552306 68.46210532 122.3125 62.5625 122.3125 C62.500625 123.09625 62.43875 123.88 62.375 124.6875 C61.42871443 128.90938946 59.65972898 132.11209684 57.5234375 135.84765625 C56.34760904 138.86370404 56.54894131 140.26690373 57.5625 143.3125 C58.67602953 145.24381442 58.67602953 145.24381442 60.0625 146.9375 C63.44468447 151.28321376 64.02192091 154.7994491 63.5625 160.3125 C60.54250516 167.79058246 53.35148054 175.29316179 46.51171875 179.60546875 C42.54483133 181.04435978 38.692475 181.03312614 34.5625 180.3125 C32.04023364 178.97975674 29.9003449 177.49431687 27.66796875 175.72265625 C25.16068978 174.04338407 23.57887107 173.4970839 20.5625 173.3125 C17.52441895 174.23095855 17.52441895 174.23095855 14.5 175.6875 C8.07486928 178.58812648 8.07486928 178.58812648 4.5625 179.3125 C4.40394531 180.25351562 4.24539062 181.19453125 4.08203125 182.1640625 C1.67014662 195.03633073 1.67014662 195.03633073 -3.4375 199.3125 C-8.45435947 201.46794711 -13.01153755 201.64725503 -18.375 201.625 C-19.53418945 201.64916992 -19.53418945 201.64916992 -20.71679688 201.67382812 C-27.12901735 201.67924843 -31.50993967 200.39742372 -36.8125 196.62109375 C-38.69909691 193.94085631 -38.96077256 191.74975343 -39.24560547 188.52392578 C-39.57399442 184.84647084 -40.21347039 181.82700417 -41.4375 178.3125 C-45.15795247 175.41098095 -48.90281313 174.40789189 -53.4375 173.3125 C-54.28183594 172.88066406 -55.12617188 172.44882812 -55.99609375 172.00390625 C-58.52611947 170.99134735 -58.52611947 170.99134735 -61.04296875 172.61328125 C-61.89503906 173.27714844 -62.74710938 173.94101562 -63.625 174.625 C-64.91470703 175.60919922 -64.91470703 175.60919922 -66.23046875 176.61328125 C-66.95878906 177.17402344 -67.68710938 177.73476563 -68.4375 178.3125 C-71.59491901 179.8912095 -75.00325334 179.80987365 -78.4375 179.3125 C-83.60394997 177.26276713 -86.91226235 174.23950599 -90.6875 170.3125 C-91.21601562 169.77882813 -91.74453125 169.24515625 -92.2890625 168.6953125 C-96.47588158 164.42348186 -99.09907044 161.40423204 -99.4375 155.3125 C-98.4272499 149.9641171 -96.72586934 146.50517219 -92.875 142.6875 C-91.12680589 140.8295462 -91.12680589 140.8295462 -90.4375 138.3125 C-91.50019507 134.09670556 -93.03826734 130.41334498 -94.9140625 126.5078125 C-96.4375 123.3125 -96.4375 123.3125 -96.4375 121.3125 C-97.16195312 121.27511719 -97.88640625 121.23773438 -98.6328125 121.19921875 C-105.81407583 120.71089284 -110.57198624 119.88848191 -116.06640625 114.94921875 C-119.7876477 110.36490994 -119.12576842 104.94148637 -119 99.3125 C-119.01095703 98.24515625 -119.02191406 97.1778125 -119.03320312 96.078125 C-118.97704216 90.05766911 -118.73193932 85.90894963 -114.4375 81.3125 C-110.7122018 78.39943895 -108.19750407 78.15509743 -103.5625 78.125 C-100.36124305 77.68972402 -98.25450269 77.33989924 -96.18798828 74.74121094 C-93.19343151 69.57080947 -90.19979338 63.52594141 -90.6484375 57.4609375 C-91.70730554 54.57788095 -93.46320068 52.64576284 -95.4375 50.3125 C-97.98454177 46.61928944 -98.06048036 42.64877116 -97.4375 38.3125 C-94.29004979 30.58694039 -87.55684824 23.71104082 -80.3984375 19.54296875 C-76.25741099 17.82209362 -72.84689714 17.58419742 -68.4375 18.3125 C-65.34161167 20.00647663 -63.00048889 21.78469791 -60.4375 24.1875 C-59.7775 24.55875 -59.1175 24.93 -58.4375 25.3125 C-52.90997647 23.74690085 -47.60472259 21.44475915 -42.265625 19.3359375 C-39.4375 18.3125 -39.4375 18.3125 -37.4375 18.3125 C-37.40011719 17.66023438 -37.36273438 17.00796875 -37.32421875 16.3359375 C-36.82351217 9.67948533 -36.02932223 4.83611638 -31.0625 0 C-23.25879722 -5.01666607 -8.11674248 -3.98458267 0 0 Z M-45.8984375 78.12109375 C-51.34501548 85.87624666 -53.27655466 95.01959005 -52.03125 104.359375 C-49.75977287 115.01368439 -44.37324 123.057482 -35.4375 129.3125 C-26.26708434 134.35776213 -16.74401583 135.85719183 -6.5 133.3125 C3.32011467 130.00304403 10.79720534 123.42166871 15.5625 114.3125 C15.90023437 113.71179688 16.23796875 113.11109375 16.5859375 112.4921875 C20.07087285 105.10668231 20.02164491 94.59764383 17.4375 86.9375 C12.29178979 75.87662758 5.28471597 68.65587337 -6.1171875 64.2265625 C-22.2241412 59.79241289 -35.62218479 65.75674402 -45.8984375 78.12109375 Z " fill="#000000" transform="translate(218.4375,308.6875)"/>
</svg>
