<?xml version="1.0" encoding="UTF-8"?>
<svg version="1.1" xmlns="http://www.w3.org/2000/svg" width="512" height="512">
<path d="M0 0 C12.33397348 7.32258166 17.11520218 21.14630667 22.91796875 33.625 C23.66406764 35.21885162 24.41074288 36.81243356 25.15795898 38.40576172 C26.70712077 41.71023646 28.25381942 45.01584721 29.79882812 48.32226562 C33.05005579 55.27474387 36.33369522 62.21186317 39.61584473 69.14978027 C41.36477343 72.84872694 43.10981816 76.5495055 44.85546875 80.25 C47.42115526 85.68835648 49.99300979 91.12373422 52.57118225 96.55618286 C54.07827179 99.73318118 55.58234858 102.91160026 57.08590698 106.090271 C57.80288947 107.60415008 58.5212365 109.11738372 59.24099731 110.62994385 C60.23187205 112.71259717 61.21803421 114.79741862 62.203125 116.8828125 C62.76523682 118.06762207 63.32734863 119.25243164 63.90649414 120.47314453 C65.10546875 123.25 65.10546875 123.25 65.10546875 125.25 C65.76932083 125.28208054 66.43317291 125.31416107 67.11714172 125.34721375 C78.76678304 126.07010671 90.244917 127.94455565 101.7734375 129.70703125 C104.0625958 130.05481596 106.35176531 130.40252687 108.64094543 130.75016785 C113.41800654 131.47706779 118.19440426 132.20816902 122.97045898 132.94165039 C129.07122897 133.87774629 135.17425155 134.79818274 141.27796459 135.71486378 C145.99857489 136.42649429 150.71747182 137.14901661 155.4359684 137.87451744 C157.68508475 138.2185122 159.93480655 138.5585737 162.18514061 138.89451027 C165.33518326 139.36590249 168.48250561 139.8526254 171.62963867 140.34301758 C173.00378937 140.54350708 173.00378937 140.54350708 174.40570068 140.74804688 C185.04220603 142.44346826 193.95084128 145.96643723 201.10546875 154.25 C207.07622329 163.86875732 208.09439526 173.15084929 207.10546875 184.25 C204.1800128 196.40317984 193.24156313 205.34626569 184.66796875 213.75 C182.45748383 215.92360609 180.25030535 218.1004927 178.046875 220.28125 C177.51369659 220.80883911 176.98051819 221.33642822 176.43118286 221.88000488 C173.73396392 224.56678735 171.1291994 227.28661818 168.6640625 230.1875 C162.8231052 237.04850531 156.18688582 243.22018377 149.78466797 249.55029297 C143.89152774 255.38295809 138.05548639 261.16453105 132.69335938 267.49658203 C130.93964472 269.43311011 129.06883498 271.13261955 127.10546875 272.85546875 C126.44675781 273.44779297 125.78804688 274.04011719 125.109375 274.65039062 C123.76547382 275.84889899 122.3974851 277.02089435 121.0078125 278.16601562 C118.25466161 280.70843826 116.23672387 282.77746212 115.89425659 286.61956787 C116.94984785 297.48768926 118.77559025 308.233727 120.57529068 318.99965096 C121.1864677 322.66168705 121.78912874 326.3250334 122.38937378 329.98887634 C124.09542176 340.39711439 125.81139416 350.80366259 127.54541016 361.20727539 C128.60929074 367.59395859 129.65903416 373.98283434 130.70000839 380.37328911 C131.09736759 382.79529695 131.50002647 385.21644187 131.90823746 387.63664436 C132.47962253 391.02664084 133.03294086 394.41915396 133.58251953 397.81274414 C133.75285706 398.79645996 133.92319458 399.78017578 134.09869385 400.79370117 C135.74618968 411.21386953 135.40295806 420.94796792 130.10546875 430.25 C129.75613281 430.87648438 129.40679687 431.50296875 129.046875 432.1484375 C124.73126007 438.98771652 117.8253315 443.18823178 110.10546875 445.25 C107.45003644 445.48664993 104.94444996 445.61991566 102.29296875 445.625 C101.63232422 445.64949219 100.97167969 445.67398437 100.29101562 445.69921875 C94.48068275 445.73296705 90.21186035 443.88986044 85.10546875 441.25 C84.18886475 440.77755859 83.27226074 440.30511719 82.32788086 439.81835938 C79.19774665 438.175212 76.08740307 436.49908824 72.98046875 434.8125 C71.84174316 434.19705322 70.70301758 433.58160645 69.52978516 432.94750977 C61.17998885 428.4241408 52.90348131 423.77626747 44.65185547 419.07641602 C36.87080231 414.65393178 29.01094444 410.38905739 21.12939453 406.14892578 C12.82817447 401.67086891 4.60923303 397.05568045 -3.5859375 392.38671875 C-4.48699219 391.87367188 -5.38804687 391.360625 -6.31640625 390.83203125 C-7.1062793 390.38061768 -7.89615234 389.9292041 -8.70996094 389.46411133 C-9.43086914 389.06345459 -10.15177734 388.66279785 -10.89453125 388.25 C-11.56645508 387.84612061 -12.23837891 387.44224121 -12.93066406 387.02612305 C-15.43225846 386.03748946 -16.39970476 386.3013426 -18.89453125 387.25 C-20.52718995 388.03389876 -22.13619983 388.8678773 -23.7265625 389.734375 C-24.67748779 390.25040283 -25.62841309 390.76643066 -26.6081543 391.2980957 C-27.63078369 391.85972412 -28.65341309 392.42135254 -29.70703125 393 C-30.77800049 393.58418701 -31.84896973 394.16837402 -32.95239258 394.77026367 C-40.9747375 399.16049326 -48.94396242 403.64124666 -56.89379883 408.16113281 C-65.30413019 412.93696653 -73.76885457 417.61117444 -82.24603271 422.2668457 C-88.71260009 425.8186294 -95.16536731 429.38849337 -101.5703125 433.05078125 C-102.60929688 433.64439453 -103.64828125 434.23800781 -104.71875 434.84960938 C-106.64495652 435.95371599 -108.56836446 437.06272652 -110.48828125 438.17773438 C-120.79648506 444.08684672 -129.84255504 447.03812703 -141.89453125 445.25 C-151.52396623 442.3479785 -158.07252889 436.4716118 -163.26953125 428.01171875 C-170.04450028 414.01482094 -164.79564562 395.49976186 -162.31467819 381.01265717 C-161.65600458 377.16447651 -161.01383324 373.31384625 -160.37564087 369.46221924 C-159.02212613 361.30557431 -157.6469978 353.15262874 -156.26953125 345 C-154.66551405 335.50604054 -153.07011164 326.01079454 -151.49623489 316.51178741 C-150.86290441 312.71643458 -150.21414281 308.9239258 -149.56478882 305.13128662 C-149.17963824 302.81779426 -148.79520904 300.50418165 -148.41162109 298.19042969 C-148.22676651 297.1359111 -148.04191193 296.08139252 -147.85145569 294.99491882 C-147.69433609 294.0280867 -147.53721649 293.06125458 -147.37533569 292.06512451 C-147.23337957 291.22679455 -147.09142345 290.38846458 -146.94516563 289.52473068 C-146.85354644 285.40877298 -149.0321894 282.86644311 -151.74609375 279.984375 C-152.33849854 279.35329834 -152.93090332 278.72222168 -153.54125977 278.07202148 C-154.19408936 277.38825439 -154.84691895 276.7044873 -155.51953125 276 C-156.54808228 274.91344116 -156.54808228 274.91344116 -157.59741211 273.80493164 C-165.10229628 265.93335665 -172.81783676 258.26822598 -180.55517578 250.62597656 C-188.74872342 242.51431771 -188.74872342 242.51431771 -192.234375 238.41015625 C-197.72021873 231.99013197 -203.89547748 226.18408206 -209.89453125 220.25 C-238.6368534 191.81896653 -238.6368534 191.81896653 -239.33203125 175.5625 C-239.18214097 166.16937556 -236.12763053 157.54922047 -229.53515625 150.70703125 C-217.39458615 139.92504876 -198.48434961 139.82252125 -183.0859375 137.4921875 C-180.78711821 137.14058766 -178.48836747 136.78853941 -176.18968201 136.43606567 C-170.1741653 135.51482916 -164.15777947 134.5993999 -158.14117432 133.68530273 C-152.01222498 132.75318175 -145.88406029 131.81593295 -139.75585938 130.87890625 C-132.86994022 129.82612057 -125.98395559 128.77379348 -119.0973053 127.72579956 C-118.05192596 127.56661041 -117.00654663 127.40742126 -115.92948914 127.2434082 C-113.9852523 126.94741359 -112.04096573 126.65174537 -110.09661865 126.35647583 C-108.41922397 126.10101389 -106.74225194 125.84275135 -105.06584263 125.58090115 C-103.1716097 125.2922259 -101.27228711 125.03735209 -99.37243652 124.78831482 C-96.71086252 124.48753991 -96.71086252 124.48753991 -95.22631836 122.10229492 C-94.79585205 121.15459229 -94.36538574 120.20688965 -93.921875 119.23046875 C-93.17224487 117.62594849 -93.17224487 117.62594849 -92.4074707 115.98901367 C-91.88757568 114.81701416 -91.36768066 113.64501465 -90.83203125 112.4375 C-90.26540454 111.20515006 -89.69659673 109.97380088 -89.12573242 108.7434082 C-87.94163692 106.18201321 -86.7705787 103.61526231 -85.61035156 101.04296875 C-83.53019328 96.43350387 -81.39334953 91.85088471 -79.25732422 87.26708984 C-77.66150785 83.83972864 -76.0749644 80.40816019 -74.48828125 76.9765625 C-69.51678133 66.24458108 -64.44548866 55.55904069 -59.35913086 44.88110352 C-58.59869056 43.28406693 -57.83835344 41.6869812 -57.078125 40.08984375 C-56.71122055 39.31909012 -56.3443161 38.54833649 -55.96629333 37.75422668 C-53.86830836 33.33577699 -51.81432007 28.90098033 -49.8046875 24.44140625 C-49.14472778 22.99495728 -49.14472778 22.99495728 -48.47143555 21.51928711 C-47.71196199 19.84838357 -46.96553643 18.17143214 -46.23754883 16.48657227 C-42.27393459 7.83772579 -35.73865108 1.72097386 -26.89453125 -1.75 C-18.67605695 -4.48949143 -7.76146019 -3.744222 0 0 Z " fill="#FFCB2A" transform="translate(272.89453125,34.75)"/>
</svg>
