<svg xmlns="http://www.w3.org/2000/svg" version="1.0" preserveAspectRatio="xMidYMid meet" viewBox="0 808.23 1080 309.63">

<g transform="translate(0.000000,1920.000000) scale(0.100000,-0.100000)" fill="#000000" stroke="none">
<path d="M5214 11105 c-474 -64 -866 -311 -1116 -700 -118 -183 -207 -425 -227 -614 l-7 -66 -42 90 c-61 129 -97 160 -134 118 -42 -48 -64 -122 -128 -443 -45 -228 -70 -293 -111 -298 -22 -3 -31 5 -56 45 -65 103 -100 202 -137 391 -48 248 -102 468 -127 519 -26 54 -55 64 -85 30 -35 -41 -60 -121 -104 -334 -22 -109 -48 -233 -57 -276 -9 -43 -19 -74 -23 -70 -4 4 -15 29 -25 55 -49 133 -101 93 -153 -118 l-26 -107 -17 54 c-74 233 -134 410 -149 439 -47 92 -95 91 -143 -4 -16 -32 -60 -151 -96 -263 l-67 -204 -13 76 c-26 156 -55 214 -100 200 -28 -9 -52 -59 -86 -175 -15 -52 -30 -101 -34 -108 -5 -8 -31 80 -64 210 -30 122 -65 249 -77 281 -40 107 -100 113 -145 14 -13 -28 -47 -132 -76 -229 -28 -98 -56 -178 -61 -178 -5 0 -21 14 -35 30 -33 40 -54 38 -100 -11 -26 -27 -44 -38 -55 -34 -17 7 -46 67 -99 205 -30 78 -73 140 -97 140 -6 0 -24 -11 -40 -25 -30 -25 -46 -60 -127 -270 -25 -66 -48 -121 -50 -123 -2 -3 -22 34 -43 81 -23 49 -49 90 -61 97 -27 14 -58 5 -72 -22 -10 -18 -13 -15 -46 36 -59 96 -104 86 -168 -36 -51 -99 -88 -158 -99 -158 -6 0 -19 9 -31 20 -19 18 -26 19 -50 8 -23 -10 -28 -10 -37 6 -20 37 -71 86 -94 92 -13 3 -68 -6 -124 -22 -79 -22 -100 -32 -100 -46 0 -25 33 -23 126 7 90 29 99 26 148 -46 l33 -49 -22 -69 c-13 -38 -26 -82 -29 -98 -11 -44 -32 -66 -58 -60 -13 4 -54 32 -92 64 -101 85 -106 89 -106 70 0 -18 118 -120 172 -148 20 -10 44 -16 53 -13 20 8 46 59 75 149 12 39 24 71 25 72 1 2 15 -3 32 -9 25 -9 38 -9 58 0 26 12 31 9 106 -63 61 -58 85 -75 108 -75 53 0 78 53 99 210 l8 55 34 -64 c19 -36 47 -73 62 -84 23 -18 30 -18 57 -7 17 7 41 28 53 48 20 33 23 34 32 17 19 -33 67 -75 87 -75 23 0 51 52 91 173 35 107 57 153 67 141 5 -5 32 -74 61 -154 29 -80 62 -162 72 -184 24 -47 61 -86 83 -86 30 0 64 52 96 148 24 72 42 108 70 139 21 23 52 69 69 103 53 105 73 95 125 -60 39 -116 68 -169 101 -184 15 -7 25 -29 38 -80 75 -291 156 -294 247 -9 22 71 23 71 54 66 26 -4 36 0 61 29 16 18 36 44 45 57 24 37 42 22 93 -76 52 -98 69 -121 109 -147 37 -25 54 -15 81 45 l24 50 25 -54 c14 -31 37 -63 51 -73 57 -36 95 15 136 185 l23 94 24 -46 c30 -59 57 -76 85 -50 27 24 60 91 92 188 30 93 59 145 81 145 8 0 27 -18 41 -40 20 -31 36 -85 65 -223 42 -198 79 -329 104 -364 33 -47 88 -18 119 62 9 22 31 99 50 170 31 120 114 335 151 391 24 36 66 32 110 -11 19 -20 35 -43 35 -53 1 -53 41 -319 60 -391 125 -490 530 -900 1041 -1054 131 -40 242 -58 399 -64 331 -13 635 55 883 197 276 158 520 433 646 730 59 139 121 421 121 553 0 51 3 57 36 87 58 51 70 43 143 -100 48 -96 71 -156 97 -257 54 -214 86 -283 129 -283 57 0 83 67 141 357 19 98 42 195 51 215 20 47 57 82 78 74 18 -6 48 -70 90 -189 37 -106 63 -142 100 -142 26 0 34 7 56 50 l25 51 22 -91 c24 -97 57 -173 83 -188 33 -20 68 1 96 58 15 30 30 55 34 55 4 0 10 -13 14 -29 3 -16 17 -39 30 -51 47 -44 91 -7 163 135 17 33 41 71 53 84 l23 24 20 -28 c48 -67 75 -88 109 -82 l32 5 28 -87 c33 -102 62 -157 98 -184 52 -38 91 13 135 179 22 82 31 102 63 133 38 36 45 52 98 206 37 107 52 107 114 2 26 -43 59 -91 73 -106 14 -15 33 -52 42 -81 32 -109 80 -180 120 -180 45 0 65 37 179 338 15 41 32 71 39 69 6 -2 31 -60 56 -130 25 -70 55 -139 66 -154 21 -27 23 -27 50 -13 16 9 38 30 49 47 11 18 22 32 25 33 3 0 14 -14 24 -30 9 -17 28 -38 42 -46 40 -27 70 -11 117 62 30 47 43 61 45 48 2 -11 12 -55 23 -98 20 -84 48 -126 83 -126 29 0 87 43 136 101 l41 49 30 -16 c28 -14 33 -14 65 5 41 24 38 27 79 -102 35 -112 54 -128 114 -98 52 27 155 123 150 140 -3 8 -32 -12 -78 -53 -71 -64 -109 -85 -130 -72 -5 3 -26 58 -47 121 l-37 115 40 48 c22 26 49 48 61 50 11 2 51 -6 87 -17 89 -28 105 -27 105 4 0 20 -5 25 -26 25 -15 0 -58 9 -95 20 -63 19 -71 19 -98 5 -17 -8 -47 -35 -67 -59 -35 -42 -38 -44 -59 -30 -20 13 -25 12 -50 -8 l-28 -22 -20 25 c-10 13 -36 58 -57 100 -84 167 -126 179 -200 55 -19 -32 -25 -36 -34 -24 -6 8 -22 20 -35 27 -20 11 -26 10 -51 -14 -16 -15 -38 -54 -50 -86 -37 -97 -38 -95 -109 95 -59 157 -75 192 -104 224 -49 53 -88 13 -163 -169 -69 -169 -79 -178 -138 -120 -23 23 -49 41 -58 41 -9 0 -29 -16 -45 -36 l-29 -37 -28 99 c-80 282 -120 380 -162 390 -68 17 -101 -70 -211 -553 -3 -13 -8 -23 -12 -23 -3 0 -19 46 -35 103 -34 120 -48 150 -77 171 -45 31 -73 -10 -110 -159 l-23 -89 -66 204 c-69 213 -88 260 -123 298 -40 43 -77 19 -121 -78 -26 -57 -146 -433 -146 -456 0 -8 -3 -14 -7 -14 -5 0 -18 52 -30 116 -28 142 -52 193 -90 194 -21 0 -48 -37 -68 -92 l-19 -53 -13 50 c-7 28 -33 151 -59 274 -65 314 -90 381 -144 381 -59 0 -77 -60 -199 -637 -26 -126 -36 -153 -89 -250 -49 -90 -63 -109 -85 -111 -41 -5 -61 50 -116 325 -58 288 -83 376 -116 409 -46 46 -80 23 -134 -89 l-37 -79 -18 94 c-117 588 -561 1064 -1132 1213 -196 52 -412 66 -600 40z m367 -41 c164 -29 344 -103 495 -205 69 -46 244 -186 244 -195 0 -2 -30 17 -67 42 -149 102 -383 196 -573 230 -142 26 -394 23 -527 -5 -404 -85 -762 -341 -930 -666 -90 -176 -150 -413 -160 -640 -6 -138 8 -319 28 -373 18 -48 1 -33 -33 30 -57 103 -69 152 -69 281 0 340 114 619 394 967 162 202 320 330 528 429 218 104 457 142 670 105z m328 -56 c253 -87 482 -239 650 -432 108 -125 161 -205 232 -351 63 -131 107 -268 133 -415 l17 -95 -31 -87 c-18 -49 -36 -90 -41 -94 -5 -3 -4 7 2 23 13 33 4 181 -17 296 -32 168 -119 364 -225 507 -71 97 -322 357 -419 434 -133 107 -296 201 -417 240 -56 19 -72 31 -25 20 15 -4 78 -24 141 -46z m-939 8 c-286 -113 -527 -327 -761 -674 -155 -231 -233 -457 -248 -721 l-6 -115 -34 83 c-31 76 -33 87 -27 153 28 301 159 596 374 844 163 186 397 339 657 429 127 44 156 45 45 1z m580 -96 c256 -23 504 -109 698 -243 125 -86 221 -210 312 -400 124 -258 183 -555 160 -800 -14 -145 -32 -257 -42 -257 -4 0 -8 2 -8 5 0 3 -7 47 -15 98 -8 50 -21 164 -30 252 -19 193 -28 242 -67 365 -139 437 -462 731 -907 826 -91 20 -334 23 -434 5 -232 -40 -464 -162 -635 -333 -182 -184 -309 -438 -348 -700 -8 -57 -25 -161 -39 -233 -13 -71 -26 -148 -30 -170 -10 -68 -26 -110 -36 -93 -12 22 -39 244 -39 328 0 222 67 498 168 695 76 147 179 264 336 382 201 151 450 248 696 272 122 12 133 12 260 1z m115 -192 c234 -46 464 -179 621 -359 185 -211 284 -465 299 -769 14 -270 -78 -574 -237 -787 -388 -516 -1094 -609 -1626 -214 -225 168 -381 418 -444 711 -27 125 -29 367 -3 485 67 315 244 589 488 753 275 186 572 246 902 180z m948 -394 c104 -138 175 -298 211 -476 23 -111 32 -333 16 -383 -15 -48 -112 -257 -117 -252 -2 2 2 28 7 58 32 164 30 419 -6 594 -39 193 -140 445 -238 590 l-47 70 54 -56 c30 -31 84 -96 120 -145z m-3498 -269 c16 -55 89 -384 101 -450 l6 -40 -21 23 c-12 12 -30 22 -41 22 -35 0 -54 -35 -125 -227 -14 -40 -36 -84 -47 -98 -19 -25 -21 -25 -39 -9 -10 9 -27 40 -38 68 l-19 51 54 250 c78 362 91 419 109 462 15 36 17 37 30 19 8 -11 21 -42 30 -71z m4648 48 c24 -58 32 -91 82 -328 25 -121 53 -257 63 -302 18 -78 18 -84 1 -128 -21 -56 -36 -75 -58 -75 -23 0 -43 37 -85 160 -61 174 -105 217 -156 153 l-22 -28 7 35 c58 296 125 550 144 550 4 0 15 -17 24 -37z m-3981 -313 c25 -52 49 -115 53 -140 4 -25 9 -56 12 -70 5 -24 3 -23 -33 12 -22 20 -51 40 -66 43 -40 10 -75 -32 -117 -139 -19 -47 -36 -84 -38 -83 -11 11 84 412 109 460 16 31 31 15 80 -83z m3348 43 c12 -32 38 -132 56 -223 19 -91 37 -174 40 -185 13 -44 -15 4 -50 84 -20 46 -43 93 -53 103 -24 27 -66 22 -103 -12 -18 -16 -33 -30 -34 -30 0 0 1 33 4 73 4 61 13 89 48 160 24 48 49 87 57 87 7 0 23 -26 35 -57z m-5365 -15 c18 -46 145 -531 140 -536 -12 -13 -50 59 -85 161 -45 131 -60 157 -96 157 -25 0 -45 -24 -94 -117 -30 -58 -58 -86 -46 -45 3 9 28 93 56 185 77 258 91 279 125 195z m7355 -15 c29 -75 120 -386 115 -391 -4 -4 -31 37 -86 130 -62 106 -93 87 -152 -92 -35 -108 -68 -172 -81 -159 -8 8 111 471 135 526 10 24 25 43 33 43 9 0 24 -24 36 -57z m-6665 -27 c28 -63 175 -514 175 -537 0 -27 -31 -107 -46 -120 -21 -17 -66 28 -111 111 -65 119 -81 140 -108 140 -17 0 -33 -12 -55 -45 -36 -53 -65 -72 -84 -55 -11 8 -2 47 48 204 65 199 110 322 128 344 18 21 29 13 53 -42z m5981 3 c12 -24 54 -146 95 -272 75 -234 78 -257 30 -242 -12 3 -34 26 -51 49 -16 24 -36 46 -44 49 -25 10 -68 -36 -118 -124 -45 -82 -81 -129 -97 -129 -16 0 -43 39 -56 83 -13 45 -13 47 69 299 86 263 119 342 139 335 7 -2 22 -23 33 -48z m1343 -272 l63 -167 -26 -35 c-37 -48 -60 -59 -78 -37 -9 9 -32 67 -52 129 -21 62 -48 128 -60 146 l-23 34 34 74 34 74 22 -25 c13 -14 51 -101 86 -193z m-8615 181 c7 -13 21 -44 31 -70 16 -45 16 -47 -3 -66 -11 -11 -38 -76 -61 -144 -23 -69 -48 -134 -56 -144 -18 -24 -40 -12 -77 42 -23 34 -25 41 -13 64 7 14 31 75 53 137 73 199 95 230 126 181z m5789 -95 c-4 -30 -17 -63 -36 -88 -16 -22 -27 -31 -23 -20 15 45 59 155 62 155 2 0 1 -21 -3 -47z m-3050 -50 c14 -35 25 -63 23 -63 -11 0 -46 65 -52 96 -9 51 -2 43 29 -33z m-1798 34 c15 -23 68 -237 67 -269 -1 -29 -73 -231 -94 -265 -35 -58 -43 -47 -93 127 l-35 121 19 37 c10 20 31 78 46 127 30 99 51 145 65 145 5 0 16 -10 25 -23z m724 -73 c27 -70 27 -77 -9 -216 -30 -120 -53 -178 -70 -178 -12 0 -33 40 -60 113 l-21 56 34 135 c19 74 42 147 52 162 l18 28 18 -23 c10 -12 27 -47 38 -77z m5236 73 c8 -13 30 -85 47 -160 l32 -137 -19 -55 c-23 -70 -52 -118 -66 -110 -15 10 -28 46 -64 189 l-33 129 18 52 c23 67 48 115 60 115 5 0 16 -11 25 -23z m703 -14 c6 -16 30 -86 53 -157 l42 -129 -32 -111 c-37 -126 -55 -163 -75 -147 -21 18 -63 120 -89 217 l-25 91 28 110 c15 61 33 120 39 132 16 30 46 27 59 -6z m-8085 -77 l38 -64 -16 -97 c-17 -106 -36 -162 -59 -171 -29 -11 -84 31 -160 124 -17 20 -18 24 -4 40 8 9 41 65 73 125 37 68 64 107 75 107 9 0 32 -27 53 -64z m9588 -61 c37 -66 68 -125 68 -131 1 -7 -28 -39 -64 -73 -67 -62 -101 -75 -125 -47 -16 20 -37 104 -45 181 -7 61 -6 67 30 130 24 44 42 65 52 63 9 -2 46 -57 84 -123z m-3314 13 c-9 -105 -57 -330 -92 -428 -121 -333 -389 -635 -715 -804 -58 -30 -153 -71 -211 -90 -122 -40 -207 -58 -109 -22 211 76 366 181 580 396 178 177 254 277 333 436 61 121 87 209 122 406 8 43 19 88 26 100 16 30 60 88 67 88 3 0 2 -37 -1 -82z m-6101 -6 c13 -32 32 -70 40 -86 15 -27 15 -29 -5 -49 -31 -31 -48 -16 -101 87 l-45 87 23 19 c34 28 58 11 88 -58z m3088 -29 c8 -17 31 -91 50 -164 73 -281 192 -510 368 -706 183 -205 381 -341 623 -429 121 -44 92 -43 -48 2 -356 115 -630 320 -833 625 -132 198 -204 419 -229 704 l-7 80 30 -41 c16 -22 37 -55 46 -71z m6110 75 c15 -20 13 -26 -15 -77 -64 -115 -97 -143 -118 -102 -8 15 -4 35 18 88 15 38 34 78 42 91 18 28 53 28 73 0z m-8567 -40 c18 -18 33 -39 33 -48 0 -23 -57 -190 -71 -206 -6 -8 -15 -14 -20 -14 -11 0 -56 90 -80 159 -23 65 -22 62 -4 55 9 -4 30 11 56 40 23 25 45 46 48 46 3 0 20 -14 38 -32z m7927 -17 c17 -17 38 -31 48 -31 10 0 18 -6 18 -12 0 -22 -69 -182 -85 -197 -13 -13 -17 -13 -30 4 -8 11 -28 62 -45 113 l-30 93 31 39 c35 44 44 43 93 -9z m-5186 -6 c7 -186 124 -474 259 -640 108 -132 272 -265 422 -339 311 -155 707 -164 1009 -21 242 115 435 299 555 532 62 121 118 290 125 378 l6 70 13 -95 c8 -63 19 -104 33 -122 26 -35 26 -40 -11 -154 -44 -136 -90 -233 -164 -344 -131 -195 -206 -265 -380 -350 -133 -65 -290 -117 -417 -136 -128 -20 -395 -14 -508 11 -182 40 -388 125 -521 216 -216 147 -393 386 -479 649 l-30 91 20 27 c22 29 50 144 50 204 0 32 8 68 14 68 2 0 4 -20 4 -45z m-3827 -84 l23 -18 -23 -8 c-26 -8 -58 15 -47 34 10 15 20 14 47 -8z m10054 -1 c0 -22 -32 -37 -47 -22 -11 11 -9 16 7 28 22 16 40 14 40 -6z m-2979 -111 c-36 -169 -65 -247 -86 -234 -5 3 -21 42 -36 88 -15 45 -29 88 -32 96 -4 10 2 9 21 -3 37 -25 60 -6 110 91 23 45 43 80 45 79 1 -2 -8 -55 -22 -117z m-4121 35 c50 -98 84 -123 119 -88 22 21 21 5 -3 -74 -22 -71 -47 -116 -61 -107 -5 3 -18 36 -29 73 -20 67 -70 272 -66 272 1 0 19 -34 40 -76z m3450 -60 c-39 -174 -78 -262 -184 -420 -64 -97 -277 -328 -376 -408 -144 -118 -329 -221 -481 -269 -322 -101 -718 -43 -1022 150 -325 207 -569 515 -681 861 -52 159 -58 191 -24 123 15 -29 37 -58 49 -63 16 -8 29 -33 48 -92 57 -181 187 -398 316 -525 372 -367 947 -498 1453 -329 187 62 351 155 443 250 73 75 180 224 228 317 43 84 126 307 126 342 0 9 12 22 26 29 16 9 39 42 62 91 20 42 38 73 40 69 2 -4 -9 -61 -23 -126z"/>
</g>
</svg>