<?xml version="1.0" encoding="UTF-8"?>
<svg version="1.1" xmlns="http://www.w3.org/2000/svg" width="512" height="512">
<path d="M0 0 C3.21472588 3.41694357 4.80236876 6.56838499 6.2265625 11.00854492 C6.80736572 12.79146187 6.80736572 12.79146187 7.39990234 14.61039734 C7.80838712 15.9003835 8.21674992 17.19040829 8.625 18.48046875 C9.05706993 19.81733647 9.49019374 21.15386399 9.92431641 22.49006653 C11.0630427 26.00302367 12.18948604 29.51979052 13.31274414 33.03771973 C15.10694152 38.65008386 16.91964922 44.25649146 18.73260498 49.86281776 C19.35893327 51.80563123 19.97995694 53.75007401 20.60009766 55.69487 C25.51632299 73.24985942 25.51632299 73.24985942 38.125 85.375 C43.21357836 87.72514663 47.7626249 88.14301322 53.33544922 88.12597656 C54.06766693 88.1278447 54.79988464 88.12971283 55.55429077 88.13163757 C57.14099654 88.13563403 58.72770804 88.13771572 60.31441879 88.13809967 C63.69150053 88.1415243 67.06839131 88.16289639 70.44540596 88.18333054 C76.72909239 88.22130835 83.01257229 88.25261435 89.29638672 88.25048828 C93.6714395 88.2497005 98.04578903 88.27308964 102.42065811 88.3123703 C104.08473676 88.32281938 105.74889667 88.32436233 107.41299057 88.31671906 C109.74468622 88.30707686 112.07425773 88.3283128 114.40576172 88.35644531 C115.08856201 88.34624863 115.7713623 88.33605194 116.47485352 88.32554626 C121.98129668 88.44428254 124.25314122 90.25760392 128 94 C129.60127074 97.20254147 129.40701607 99.45314564 129 103 C124.58741843 109.87843598 117.6652657 114.0122918 111.04638672 118.57714844 C107.43496666 121.08816683 103.8753927 123.6708042 100.3125 126.25 C99.56532715 126.79043945 98.8181543 127.33087891 98.04833984 127.88769531 C95.69749424 129.58987705 93.34846652 131.2945376 91 133 C90.1661377 133.60489258 89.33227539 134.20978516 88.47314453 134.83300781 C85.93705863 136.67576483 83.40542337 138.5244772 80.875 140.375 C80.10583252 140.93348633 79.33666504 141.49197266 78.54418945 142.06738281 C65.26274031 151.63556935 65.26274031 151.63556935 59.0625 166.25 C58.47295496 175.77591294 62.72338099 185.61704592 65.6875 194.5390625 C66.03127686 195.5859726 66.37505371 196.63288269 66.72924805 197.71151733 C67.81551876 201.01733751 68.90745855 204.32124755 70 207.625 C71.09149648 210.93622715 72.18176309 214.24785331 73.27075195 217.55990601 C73.94468502 219.6084959 74.62019791 221.65656704 75.29760742 223.70401001 C81.85448103 243.59139226 81.85448103 243.59139226 81 250 C79.16979094 253.59002546 76.95709262 255.64629186 73.125 257.0625 C65.85299333 256.91705987 60.29201603 252.30504776 54.6875 248.125 C53.08609373 246.94900598 51.48452676 245.77323076 49.8828125 244.59765625 C49.07102539 243.99840332 48.25923828 243.39915039 47.42285156 242.78173828 C43.65723614 240.01254629 39.85847587 237.28983616 36.0625 234.5625 C31.30588931 231.1426049 26.57575421 227.69316945 21.890625 224.17578125 C20.61819946 223.22433228 20.61819946 223.22433228 19.32006836 222.25366211 C17.69388613 221.03533164 16.07201413 219.81121837 14.45532227 218.58032227 C7.2480708 213.18877537 0.1415284 209.40487263 -9.15625 210.1796875 C-19.03550631 211.88420708 -27.17721149 218.66881331 -35 224.5625 C-36.65960386 225.79891889 -38.31977429 227.03457759 -39.98046875 228.26953125 C-41.23029541 229.20079834 -41.23029541 229.20079834 -42.50537109 230.15087891 C-48.58910907 234.66039461 -54.74833262 239.06657202 -60.8984375 243.48486328 C-62.95892426 244.97038615 -65.01155129 246.46618909 -67.0625 247.96484375 C-68.31245375 248.87245954 -69.56245123 249.78001509 -70.8125 250.6875 C-71.3691333 251.09774414 -71.9257666 251.50798828 -72.49926758 251.93066406 C-76.54875443 254.85643862 -79.92281652 257.04327466 -85 256.9375 C-88.90492871 255.71720978 -90.5274574 254.24962741 -93 251 C-94.838456 244.41483848 -92.9428251 239.37974983 -90.80859375 233.046875 C-90.46627213 231.99203918 -90.1239505 230.93720337 -89.77125549 229.85040283 C-88.67377958 226.47891257 -87.5561858 223.11450488 -86.4375 219.75 C-85.71151757 217.53430358 -84.9868952 215.31816105 -84.26367188 213.1015625 C-82.84975046 208.77320911 -81.43138019 204.44636111 -80.00878906 200.12084961 C-78.16194988 194.49792528 -76.32052541 188.87356836 -74.51171875 183.23828125 C-74.13907143 182.097612 -74.13907143 182.097612 -73.75889587 180.93389893 C-70.93724297 172.0811247 -71.00554119 165.65462634 -74.81640625 157.17578125 C-76.48598603 154.10661975 -78.29972136 152.23066496 -81 150 C-81.67675781 149.43152344 -82.35351562 148.86304688 -83.05078125 148.27734375 C-89.46639287 142.99575186 -96.22540614 138.21055484 -103.00488281 133.41552734 C-112.74383113 126.50578403 -122.40916927 119.48880121 -132 112.375 C-132.67659668 111.87822754 -133.35319336 111.38145508 -134.05029297 110.86962891 C-140.65493186 105.93964619 -140.65493186 105.93964619 -141.37109375 101.9140625 C-141.50038828 97.45720385 -141.49125561 95.6205334 -138.625 92 C-134.45171588 88.82035495 -132.20278076 88.87203403 -126.95507812 88.8581543 C-126.22957764 88.85467987 -125.50407715 88.85120544 -124.7565918 88.84762573 C-123.17750314 88.84026423 -121.59840411 88.83492095 -120.01930237 88.83133507 C-117.51274264 88.82416582 -115.00637825 88.80849247 -112.49987793 88.78999329 C-105.37169196 88.73756993 -98.24360863 88.68962508 -91.11523438 88.67407227 C-86.75550619 88.6639365 -82.39626348 88.6344638 -78.03672791 88.59275246 C-76.38154286 88.5805086 -74.72628899 88.57530901 -73.07106018 88.57755089 C-61.61262764 88.58924283 -51.88489652 88.06398201 -43 80 C-38.1247627 72.4058821 -35.32248625 63.73190993 -32.6171875 55.18359375 C-32.23563507 54.00587906 -31.85408264 52.82816437 -31.46096802 51.61476135 C-30.25665478 47.89183525 -29.06531786 44.1649216 -27.875 40.4375 C-26.67489458 36.70740995 -25.47207477 32.97821109 -24.26760864 29.24952698 C-23.52318262 26.94204722 -22.78167423 24.63362329 -22.04367065 22.32408142 C-21.04447968 19.21077648 -20.02602641 16.10455227 -19 13 C-18.50261322 11.45144821 -18.50261322 11.45144821 -17.99517822 9.87161255 C-17.66435242 8.88925629 -17.33352661 7.90690002 -16.99267578 6.89477539 C-16.70498322 6.02309219 -16.41729065 5.151409 -16.12088013 4.25331116 C-14.53678855 1.06880362 -12.38365 -0.3797431 -9.1875 -1.8125 C-5.72120437 -2.10961105 -3.21872377 -1.26449862 0 0 Z " fill="#000000" transform="translate(221,60)"/>
<path d="M0 0 C6.53951065 2.04521943 12.37270983 5.0971434 18.4375 8.25 C19.03103271 8.558237 19.62456543 8.866474 20.23608398 9.18405151 C54.86633174 27.22498331 87.75960712 49.94726584 116.375 76.5859375 C117.74828318 77.84886757 119.12646654 79.10768548 120.54698181 80.31724548 C127.37721714 86.1370091 133.69961953 92.47826752 140.06640625 98.79296875 C140.67814131 99.39938013 141.28987637 100.00579151 141.92014885 100.63057899 C145.14468197 103.82858327 148.36566951 107.03011486 151.58422852 110.23413086 C154.24565432 112.88212133 156.91420262 115.52261369 159.58911133 118.15698242 C162.83185927 121.35061216 166.06234645 124.55615779 169.28419304 127.7708683 C170.51162406 128.99157051 171.74331854 130.20800103 172.97928047 131.42006493 C174.69800611 133.10737955 176.400504 134.80956159 178.09985352 136.51635742 C178.61452179 137.01462036 179.12919006 137.5128833 179.65945435 138.02624512 C181.04811096 139.44010925 181.04811096 139.44010925 183 142 C182.82941314 145.2517789 181.57134634 146.7940646 179.27734375 149.015625 C178.73916016 149.54414063 178.20097656 150.07265625 177.64648438 150.6171875 C177.08251953 151.15601563 176.51855469 151.69484375 175.9375 152.25 C175.36966797 152.80429687 174.80183594 153.35859375 174.21679688 153.9296875 C172.81787531 155.29334214 171.40980886 156.64760417 170 158 C165.92880075 156.38349497 163.22098923 153.47501953 160.21264648 150.40795898 C159.64451736 149.83690933 159.07638824 149.26585968 158.49104309 148.67750549 C157.25897997 147.43783948 156.02923263 146.19586855 154.80154228 144.95187187 C152.84966136 142.97438015 150.89152885 141.00327585 148.93165588 139.03370667 C144.05924417 134.13459367 139.19759322 129.22484706 134.33587646 124.31512451 C130.23487674 120.17438247 126.12962141 116.03794667 122.01881599 111.90693855 C120.10553617 109.98085042 118.19847124 108.048758 116.29161072 106.11631775 C110.21524068 99.98942967 104.10311899 94.1882842 97.31483459 88.84510803 C95.07817336 87.06231041 92.97179477 85.19408806 90.875 83.25 C79.73551213 73.24638119 67.29437495 64.52298767 55 56 C54.4210498 55.59716797 53.84209961 55.19433594 53.24560547 54.77929688 C37.47670301 43.86602301 20.67886678 34.74271341 3.828125 25.62890625 C-0.14829962 23.47487984 -4.08445816 21.26266967 -8 19 C-6.60121198 14.53202662 -4.86369228 10.36177921 -2.875 6.125 C-2.33617187 4.97257812 -1.79734375 3.82015625 -1.2421875 2.6328125 C-0.62730469 1.32957031 -0.62730469 1.32957031 0 0 Z " fill="#000000" transform="translate(329,272)"/>
<path d="M0 0 C6.36267124 3.93812911 10.4547537 10.15638211 12.375 17.3125 C14.0235363 26.62753034 12.42606075 35.21308108 7 43 C4.24758462 46.01045432 1.21596357 48.498695 -2 51 C-2.98355469 51.76957031 -3.96710938 52.53914063 -4.98046875 53.33203125 C-7.15951774 55.02347972 -9.34981297 56.69921775 -11.546875 58.3671875 C-15.03919604 61.02111365 -18.49184713 63.72338574 -21.9375 66.4375 C-22.8035083 67.118125 -22.8035083 67.118125 -23.68701172 67.8125 C-26.69195031 70.17572857 -29.68972828 72.54753365 -32.6796875 74.9296875 C-36.09789121 77.64854718 -39.53688418 80.33859221 -43 83 C-43.86882812 83.66773437 -44.73765625 84.33546875 -45.6328125 85.0234375 C-49.09741467 87.52499771 -51.44075799 88.89573454 -55.6875 89.6875 C-60.11025324 88.76957008 -62.02708712 87.39761472 -65 84 C-67.2421711 76.11158705 -64.2530003 69.65394962 -61.49609375 62.2265625 C-61.01459425 60.89475035 -60.53431487 59.56249652 -60.05519104 58.22982788 C-59.04938386 55.44377343 -58.03203108 52.66231525 -57.00561523 49.88378906 C-55.70134226 46.35158153 -54.42157437 42.81112071 -53.14993191 39.2670536 C-52.16030776 36.51511767 -51.15993174 33.76718717 -50.15620613 31.02036667 C-49.68114647 29.71781815 -49.2087493 28.41429494 -48.73925591 27.10972977 C-44.27969913 14.7625545 -39.95433943 4.0248478 -27.9375 -2.3125 C-18.64089814 -6.146957 -8.63959776 -4.79104966 0 0 Z " fill="#000000" transform="translate(347,19)"/>
<path d="M0 0 C10.05500695 5.55767657 13.45983136 15.32461847 17.1796875 25.63671875 C17.71728699 27.09933891 17.71728699 27.09933891 18.26574707 28.59150696 C19.40030044 31.68349847 20.52447544 34.77914496 21.6484375 37.875 C22.40167268 39.9318865 23.15557373 41.98852928 23.91015625 44.04492188 C25.68989459 48.90079634 27.4561407 53.7614268 29.21682739 58.62423706 C30.0613166 60.94779266 30.91510039 63.26762381 31.77319336 65.58618164 C32.45200562 67.4384436 32.45200562 67.4384436 33.14453125 69.328125 C33.52536865 70.3584082 33.90620605 71.38869141 34.29858398 72.45019531 C35.61605919 76.69366902 35.77861063 79.77628808 35.1484375 84.1875 C33.35450082 87.05779869 32.16580474 88.67881638 29.1484375 90.1875 C24.67494376 91.01592477 22.39070428 90.93250103 18.4453125 88.56640625 C15.84508122 86.61623279 13.30376979 84.61450161 10.79882812 82.54345703 C8.57257867 80.71437575 6.29924462 78.94887315 4.02587891 77.17895508 C2.25141421 75.79532748 0.48411083 74.40303263 -1.28125 73.0078125 C-4.21947079 70.68579968 -7.16210728 68.36951424 -10.10791016 66.05712891 C-11.26729731 65.14643695 -12.42583152 64.23465803 -13.58349609 63.32177734 C-16.58340413 60.95777896 -19.59606279 58.61340994 -22.6328125 56.296875 C-32.68486983 48.59901211 -41.37414594 41.7404754 -43.234375 28.453125 C-43.60450657 19.71801995 -41.08174973 12.59689655 -35.6015625 5.8125 C-26.37141353 -4.03431841 -12.00938381 -5.59660605 0 0 Z " fill="#000000" transform="translate(113.8515625,17.8125)"/>
<path d="M0 0 C0.77134277 -0.01118866 1.54268555 -0.02237732 2.33740234 -0.03390503 C5.58714511 0.17732252 7.77584222 1.25432002 10.4140625 3.10107422 C12.80811025 6.03922373 12.71275081 9.29381139 12.875 13.00341797 C11.80073414 17.89223801 7.75839057 20.79618919 3.75022888 23.41221619 C3.14558304 23.7955159 2.54093719 24.17881561 1.91796875 24.57373047 C0.56876437 25.45086889 -0.78000846 26.32867137 -2.12841797 27.20703125 C-3.20890411 27.90593475 -3.20890411 27.90593475 -4.31121826 28.61895752 C-8.35955179 31.25669084 -12.36151084 33.96356493 -16.37109375 36.65966797 C-18.07197662 37.7987715 -19.77315091 38.93744 -21.47460938 40.07568359 C-24.08255346 41.82049236 -26.68977145 43.5663323 -29.29467773 45.31567383 C-31.85964117 47.03777863 -34.42756269 48.75539034 -36.99609375 50.47216797 C-38.15867455 51.25496376 -38.15867455 51.25496376 -39.34474182 52.05357361 C-48.85157506 58.39244347 -56.06815182 61.08221892 -67.5859375 60.10107422 C-76.21092401 58.16107009 -81.99652042 53.27226831 -86.96875 46.10888672 C-90.95014756 38.73077236 -90.97181478 29.32590568 -88.85546875 21.34716797 C-85.80107864 13.979231 -81.21904458 9.1162408 -74.35546875 5.17919922 C-66.13037773 1.97733022 -57.4350061 1.72361645 -48.7109375 1.46826172 C-46.90326904 1.40591843 -46.90326904 1.40591843 -45.05908203 1.34231567 C-41.23491198 1.21251752 -37.41048012 1.09432421 -33.5859375 0.97607422 C-31.01820482 0.8895542 -28.45049606 0.80232119 -25.8828125 0.71435547 C-7.33971879 0.09488141 -7.33971879 0.09488141 0 0 Z " fill="#000000" transform="translate(89.5859375,231.89892578125)"/>
<path d="M0 0 C6.84775996 4.06812074 7.97593175 9.73403822 9.98046875 17.1328125 C10.32000076 18.32043182 10.65953278 19.50805115 11.00935364 20.73165894 C12.08857193 24.52415421 13.13830393 28.3241024 14.1875 32.125 C14.90367938 34.65939739 15.62175877 37.19325869 16.34179688 39.7265625 C18.25422348 46.47721701 20.13574085 53.2359057 22 60 C22.28844284 61.03348068 22.57688568 62.06696136 22.87406921 63.13175964 C23.1455629 64.11090836 23.41705658 65.09005707 23.69677734 66.09887695 C23.93786224 66.96430618 24.17894714 67.82973541 24.42733765 68.72138977 C26.57519087 77.26764795 25.2517656 85.37066359 21 93 C16.97176842 99.26885887 11.15759216 103.36693475 4.05078125 105.6171875 C-3.36671795 107.00178735 -11.30511028 106.63601769 -18 103 C-24.66465654 98.23812262 -30.14330117 93.14608262 -32 85 C-32.85685584 73.98938549 -31.39669907 64.61874646 -28.16796875 54.05078125 C-27.76990931 52.69606496 -27.37356826 51.34084271 -26.97883606 49.9851532 C-26.15705424 47.17882351 -25.32164091 44.37710537 -24.47436523 41.57836914 C-23.39196912 38.00230482 -22.33516582 34.41931496 -21.28711987 30.83305073 C-20.27724701 27.38211442 -19.25406006 23.9351678 -18.23046875 20.48828125 C-18.0391506 19.83932703 -17.84783245 19.19037281 -17.65071678 18.52175331 C-17.10550996 16.68067264 -16.54943153 14.84282208 -15.99291992 13.00512695 C-15.67981369 11.96306595 -15.36670746 10.92100494 -15.04411316 9.84736633 C-13.73008603 6.26392658 -12.35361978 3.01521483 -9.25 0.6875 C-5.9260257 -0.32815881 -3.46313738 -0.41796486 0 0 Z " fill="#000000" transform="translate(219,322)"/>
<path d="M0 0 C40.23995323 5.89160011 81.16559672 24.42592452 114 48 C114.56460938 48.4017041 115.12921875 48.8034082 115.7109375 49.21728516 C123.84380223 55.03674659 131.44073333 61.46656267 139 68 C140.11181641 68.9590625 140.11181641 68.9590625 141.24609375 69.9375 C147.62818314 75.48490969 153.91076644 81.14861314 160.12890625 86.87890625 C160.65838867 87.36649414 161.18787109 87.85408203 161.73339844 88.35644531 C163.23656074 89.74247808 164.73748141 91.13094075 166.23828125 92.51953125 C168.75749021 94.78218711 171.33256288 96.91560924 174 99 C172.43982103 102.60686535 170.24234682 105.21200604 167.625 108.125 C166.85414063 108.99382812 166.08328125 109.86265625 165.2890625 110.7578125 C163.22116203 112.78336688 161.65278801 113.92192633 159 115 C158.2265625 114.28714844 157.453125 113.57429688 156.65625 112.83984375 C151.52673087 108.12015734 146.3844147 103.42895517 141.11328125 98.8671875 C138.95629917 96.96138818 136.84227805 95.01285859 134.73217773 93.05541992 C96.4120483 57.56978085 50.88182134 33.38083045 -0.22607422 22.44555664 C-2 22 -2 22 -4 21 C-2.14545455 2.14545455 -2.14545455 2.14545455 0 0 Z " fill="#000000" transform="translate(338,195)"/>
<path d="M0 0 C1.375 1.36328125 1.375 1.36328125 3 3.3125 C5.88858397 6.71647448 8.84793678 10.03082398 11.875 13.3125 C41.2028412 45.55107431 65.98368603 83.39029366 84.85595703 122.625 C86.2782872 125.57771615 87.71623489 128.52271162 89.15234375 131.46875 C90.26899232 133.77046325 91.3848766 136.07254745 92.5 138.375 C93.31223022 140.0453833 93.31223022 140.0453833 94.14086914 141.74951172 C94.64094482 142.78865723 95.14102051 143.82780273 95.65625 144.8984375 C96.10806641 145.83349121 96.55988281 146.76854492 97.02539062 147.73193359 C98 150 98 150 98 152 C95.04435292 153.33934716 92.0850622 154.67044247 89.125 156 C88.28324219 156.3815625 87.44148438 156.763125 86.57421875 157.15625 C85.76855469 157.5171875 84.96289062 157.878125 84.1328125 158.25 C83.38918457 158.58515625 82.64555664 158.9203125 81.87939453 159.265625 C80 160 80 160 78 160 C77.6690332 159.27224365 77.33806641 158.5444873 76.99707031 157.79467773 C63.69776871 128.63552421 49.29280062 100.39739368 31 74 C30.60635254 73.43152344 30.21270508 72.86304688 29.80712891 72.27734375 C18.46456505 55.98487575 6.4212311 40.10706097 -7.16015625 25.60546875 C-7.66853027 25.06124268 -8.1769043 24.5170166 -8.70068359 23.95629883 C-10.09774946 22.4704539 -11.50744692 20.99651467 -12.91796875 19.5234375 C-14.92853327 17.08661821 -15.67389528 16.05824395 -16 13 C-14.12369892 10.72397819 -12.32560929 8.81080056 -10.1875 6.8125 C-9.62740234 6.26658203 -9.06730469 5.72066406 -8.49023438 5.15820312 C-3.14027649 0 -3.14027649 0 0 0 Z " fill="#000000" transform="translate(317,337)"/>
<path d="M0 0 C3.11866194 1.89938154 5.49880638 4.35828989 8 7 C8.79148437 7.83015625 9.58296875 8.6603125 10.3984375 9.515625 C20.85639389 20.81969436 20.85639389 20.81969436 21 28 C19.56121817 31.92395045 18.72690442 34.124902 14.97265625 36.02734375 C10.77277541 37.24064266 8.51949876 37.19705125 4.375 35.625 C0.20241227 32.74735329 -2.82935838 28.90284488 -6 25 C-6.7321875 24.19949219 -7.464375 23.39898437 -8.21875 22.57421875 C-14.51408014 15.44763903 -14.51408014 15.44763903 -14.75 10.1875 C-14.36462414 6.15532661 -12.98082133 3.8054789 -10 1 C-6.6885413 -0.65572935 -3.552632 -0.74196562 0 0 Z " fill="#000000" transform="translate(419,412)"/>
<path d="M0 0 C6.68221906 3.34110953 13.66284544 9.64752856 17.19140625 16.21875 C18.24204221 19.65479212 18.02726351 21.91500201 16.9375 25.3125 C14.74979601 28.34705715 13.50490886 29.67592332 10 31 C4.69995709 31.1737719 1.98299754 30.36362873 -2.0625 26.9375 C-3.39331733 25.64357661 -4.70563662 24.3303894 -6 23 C-6.67933594 22.36449219 -7.35867188 21.72898437 -8.05859375 21.07421875 C-11.41689311 17.70240511 -13.4600641 15.16892638 -13.75 10.3125 C-13.46728467 6.75397446 -12.96565683 5.95661915 -10.625 3 C-6.81003479 0.09335984 -4.81326348 -0.4628138 0 0 Z " fill="#000000" transform="translate(368,342)"/>
<path d="M0 0 C6.79078148 3.47084387 12.8032294 9.7048441 17 16 C17.8371159 20.70547252 17.6691347 24.02671316 14.9375 28 C11.40055558 30.40813237 9.27436594 31 5 31 C0.20299936 29.03669824 -3.08100703 26.37845161 -6.75 22.75 C-7.69359375 21.83734375 -8.6371875 20.9246875 -9.609375 19.984375 C-12.28281621 16.64694185 -13.24838579 14.18964305 -14 10 C-12.86635046 5.99888396 -11.88605718 3.74237223 -8.6875 1.0625 C-5.43788871 -0.22223005 -3.4696436 -0.49566337 0 0 Z " fill="#000000" transform="translate(458,302)"/>
<path d="M0 0 C6.33169983 3.16584992 13.84085327 9.68170655 17 16 C17.65271451 20.74616694 17.69934049 23.98277746 14.9375 28 C11.40055558 30.40813237 9.27436594 31 5 31 C0.33150491 29.08471996 -2.7534519 26.60380417 -6.25 23 C-7.52617187 21.700625 -7.52617187 21.700625 -8.828125 20.375 C-12.64729942 16.19863661 -13.49283208 13.71353608 -13.39453125 8.2265625 C-12.76592115 4.67896097 -10.77876696 3.11715578 -8 1 C-5.13391871 -0.43304064 -3.18699217 -0.30644155 0 0 Z " fill="#000000" transform="translate(388,252)"/>
</svg>
